<?xml version="1.0" encoding="UTF-8"?>
<svg id="Layer_1" xmlns="http://www.w3.org/2000/svg" version="1.1" viewBox="0 0 134 129.89">
  <!-- Generator: Adobe Illustrator 29.8.2, SVG Export Plug-In . SVG Version: 2.1.1 Build 3)  -->
  <defs>
    <style>
      .st0 {
        fill: #16a34a;
      }
    </style>
  </defs>
  <path class="st0" d="M65.12,7.98c7.95-.9,15.07,5.87,14.59,13.85-.24,4-4.93,9.83.91,12.51,2.97,1.36,4.52-.59,7.18-1.29,9.54-2.49,17.78,6.97,15.08,16.18-1.61,5.48-7.27,9.35-12.97,8.94-3.84-.28-7.37-4.28-10.83-.72-2.94,3.02-.72,5.66.12,8.67,3.05,10.82-8.68,20.35-18.64,14.78-8.79-4.92-8.8-17.48-.12-22.58,5.39-3.16,10-.05,14.67-5.58,5.67-6.71,1.76-17.99-7.28-18.68-3.3-.25-4.64.16-7.69-1.69-10.37-6.3-6.93-23.04,4.98-24.39h0Z"/>
  <path class="st0" d="M41.57,32.65c10.98-1.11,18.05,12.16,11.08,20.83-6.2,7.7-18.19,5.51-21.53-3.67-2.77-7.62,2.31-16.33,10.46-17.16h-.01Z"/>
  <path class="st0" d="M110.61,93.5v16.75l6.62-8.28h5.98c.08,0,.32-.47.27.09l-7.34,8.49,7.89,11.66h-6.16l-5.25-7.73c-.22-.15-2.02,1.79-2.02,1.93v5.8h-5.52v-28.71h5.53Z"/>
  <path class="st0" d="M82.09,122.21h-5.15l-.28-2.21c-4.45,5.56-15.69,2.43-13.06-5.7,1.64-5.08,8.52-4.58,12.79-4.6.07-4.85-4.98-4.65-8.29-3.05-.78.38-1.43,1.04-2.2,1.39l-.1-4.6c4.26-2.73,12.54-2.92,15.16,2.15,1.65,3.18.83,9.49.94,13.23.03,1.06.36,2.26.19,3.4h0ZM76.57,113.19h-4.14c-.47,0-2.1.49-2.55.77-2.51,1.55-1.09,5.04,1.83,5.1,3.39.07,5.23-2.69,4.86-5.87Z"/>
  <path class="st0" d="M49.89,99.21h-7.18v23h-5.52v-23h-6.99v-4.78h19.23c.06,0,.2-.33.46.09v4.69Z"/>
  <path class="st0" d="M16.3,101.97s.21-.26.36-.01l2.67,4.34,1.2,1.56,3.87-5.89h5.52c.07,0,.32-.47.27.09l-6.77,9.73,7.14,10.43h-5.98l-4.42-6.44-4.6,6.44h-5.61l7.15-10.37-6.78-9.79c-.05-.56.2-.09.27-.09,1.87,0,3.85-.09,5.7,0h0Z"/>
  <path class="st0" d="M93.65,101.65c3.45-.35,7.33.56,9.38,3.54l-2.81,2.85c-3.38-3.54-9.59-1.87-10.04,3.22-.57,6.58,5.6,8.79,10.38,5.08l2.5,2.86c-4.78,6.01-16.18,4.02-18.07-3.65-1.61-6.52,1.59-13.17,8.66-13.89h0Z"/>
  <path class="st0" d="M62.22,101.6v5.34c-1.82-.52-4.28-.18-5.37,1.53-.27.43-.88,1.99-.88,2.43v11.32h-5.52v-20.24h5.34v2.76c.56-.56.82-1.22,1.47-1.75,1.33-1.1,3.27-1.5,4.97-1.38h-.01Z"/>
</svg>