<?xml version="1.0" encoding="UTF-8"?>
<svg id="Layer_1" xmlns="http://www.w3.org/2000/svg" version="1.1" viewBox="0 0 134 129.89">
  <!-- Generator: Adobe Illustrator 29.8.2, SVG Export Plug-In . SVG Version: 2.1.1 Build 3)  -->
  <defs>
    <style>
      .st0 {
        fill: #fff;
      }
    </style>
  </defs>
  <path class="st0" d="M52.7,41.61c-10.23-10.95-4.3-30.15,10.59-33.21,13.24-2.72,24.86,7.52,24.08,21.02-.36,6.29-6,12.62-.59,18.6,4.21,4.65,8.93-1.31,14.16-1.97,27.08-3.43,31.81,37.44,4.94,38.96-7.28.41-20.37-7.94-21.52,3.54-.73,7.26,5.69,10.04,1.18,21.1-10.26,25.14-49.62,7.79-35.4-17.4,7.61-13.48,22.61-5.49,30.74-15.26,4.6-5.52,4.97-16.17.9-21.96-7.27-10.33-20.44-4.17-29.08-13.42Z"/>
  <path class="st0" d="M25.09,46.19c27.93-5.31,33.42,36.07,6.65,38.66-25.18,2.43-29.43-34.33-6.65-38.66Z"/>
</svg>